<?xml version="1.0" encoding="utf-8"?>
<!-- Generator: Adobe Illustrator 24.1.2, SVG Export Plug-In . SVG Version: 6.00 Build 0)  -->
<svg version="1.1" id="Layer_1" xmlns="http://www.w3.org/2000/svg" xmlns:xlink="http://www.w3.org/1999/xlink" x="0px" y="0px"
	 viewBox="0 0 326.8 114" style="enable-background:new 0 0 326.8 114;" xml:space="preserve">
<style type="text/css">
	.st0{fill:url(#SVGID_1_);}
	.st1{fill:url(#SVGID_2_);}
	.st2{fill:url(#SVGID_3_);}
	.st3{fill:url(#SVGID_4_);}
	.st4{opacity:0.2;fill:url(#SVGID_5_);}
	.st5{opacity:0.2;fill:url(#SVGID_6_);}
	.st6{opacity:0.2;fill:url(#SVGID_7_);}
	.st7{opacity:0.2;fill:url(#SVGID_8_);}
	.st8{opacity:0.2;fill:url(#SVGID_9_);}
	.st9{fill:#231F20;}
</style>
<image style="overflow:visible;" width="500" height="500" xlink:href="807D07E3.jpg"  transform="matrix(1 0 0 1 -7894 -8192.0635)">
</image>
<g>
	<g>
		<linearGradient id="SVGID_1_" gradientUnits="userSpaceOnUse" x1="5.325410e-02" y1="29.0321" x2="85.03" y2="140.3809">
			<stop  offset="0" style="stop-color:#6416EC"/>
			<stop  offset="1" style="stop-color:#33E0E0"/>
		</linearGradient>
		<path class="st0" d="M74.6,87l-9.8,17.1H18.7L0,71.7l17.6-30.5H48l5.2,9H22.8L14,65.6l8.8,15.3h41.7l3.3-5.7c0,0,0,0,0,0L74.6,87z
			"/>
		<linearGradient id="SVGID_2_" gradientUnits="userSpaceOnUse" x1="25.3165" y1="9.7522" x2="110.2932" y2="121.1011">
			<stop  offset="0" style="stop-color:#6416EC"/>
			<stop  offset="1" style="stop-color:#33E0E0"/>
		</linearGradient>
		<polygon class="st1" points="111,104.1 92.4,104.1 50.9,32.2 14,32.2 18.7,24.1 64.8,24.1 		"/>
		<linearGradient id="SVGID_3_" gradientUnits="userSpaceOnUse" x1="82.9504" y1="4.9973" x2="108.0667" y2="54.8113">
			<stop  offset="0" style="stop-color:#6416EC"/>
			<stop  offset="1" style="stop-color:#33E0E0"/>
		</linearGradient>
		<polygon class="st2" points="110.9,24.1 91.8,57.1 85,45.3 97.3,24.1 		"/>
		<linearGradient id="SVGID_4_" gradientUnits="userSpaceOnUse" x1="96.4741" y1="-1.8214" x2="121.5904" y2="47.9926">
			<stop  offset="0" style="stop-color:#6416EC"/>
			<stop  offset="1" style="stop-color:#33E0E0"/>
		</linearGradient>
		<polygon class="st3" points="111,10.3 98.3,10.3 98.3,18.4 111,22.3 		"/>
		<linearGradient id="SVGID_5_" gradientUnits="userSpaceOnUse" x1="11.8501" y1="77.1147" x2="45.6913" y2="32.1436">
			<stop  offset="0" style="stop-color:#FFFFFF"/>
			<stop  offset="1" style="stop-color:#474EFF;stop-opacity:0"/>
		</linearGradient>
		<polygon class="st4" points="14,65.6 22.8,80.9 0,71.7 17.6,41.3 48,41.3 53.3,50.3 22.8,50.3 		"/>
		<linearGradient id="SVGID_6_" gradientUnits="userSpaceOnUse" x1="28.8376" y1="100.0448" x2="65.0852" y2="89.9676">
			<stop  offset="0" style="stop-color:#FFFFFF"/>
			<stop  offset="1" style="stop-color:#474EFF;stop-opacity:0"/>
		</linearGradient>
		<path class="st5" d="M74.6,87l-9.8,17.1H18.7l39.8-12.8l6-10.4l3.3-5.7c0,0,0,0,0,0L74.6,87z"/>
		<linearGradient id="SVGID_7_" gradientUnits="userSpaceOnUse" x1="73.9789" y1="39.0595" x2="97.7429" y2="94.8598">
			<stop  offset="0" style="stop-color:#FFFFFF"/>
			<stop  offset="1" style="stop-color:#474EFF;stop-opacity:0"/>
		</linearGradient>
		<polygon class="st6" points="111,104.1 92.4,104.1 64.8,24.1 		"/>
		<linearGradient id="SVGID_8_" gradientUnits="userSpaceOnUse" x1="17.8349" y1="28.1898" x2="44.1558" y2="28.3402">
			<stop  offset="0" style="stop-color:#FFFFFF"/>
			<stop  offset="1" style="stop-color:#474EFF;stop-opacity:0"/>
		</linearGradient>
		<polygon class="st7" points="50.9,32.2 14,32.2 18.7,24.1 		"/>
		<linearGradient id="SVGID_9_" gradientUnits="userSpaceOnUse" x1="91.3117" y1="33.6937" x2="88.1532" y2="53.8479">
			<stop  offset="0" style="stop-color:#FFFFFF"/>
			<stop  offset="1" style="stop-color:#474EFF;stop-opacity:0"/>
		</linearGradient>
		<polygon class="st8" points="97.3,24.1 91.8,57.1 85,45.3 		"/>
	</g>
	<polygon class="st9" points="129.3,113.5 127.5,114 127.5,0.4 129.3,0 	"/>
	<g>
		<g>
			<g>
				<path class="st9" d="M182.2,11.1h-10.4l-25.6,60.1h10.9l19.8-48.9l19.9,48.9h11L182.2,11.1z"/>
				<path class="st9" d="M253.6,51.5c7.7-3.2,12.1-9.9,12.1-18.9c0-13.3-9.2-21.4-24.2-21.4h-23.4v60.1h10.6V53.7h12.8
					c0.7,0,1.4,0,2.2-0.1l11.6,17.6h11.4L253.6,51.5z M241,44.5h-12.3v-24H241c9.2,0,14,4.4,14,11.9C255,40,250.2,44.5,241,44.5z"/>
				<path class="st9" d="M304.8,62.3c-11.8,0-20.3-8.7-20.3-21.1s8.5-21.1,20.3-21.1c5.9,0,11,2.3,15.2,7l6.8-6.8
					c-5.3-6.5-13.3-10-22.5-10c-17.4,0-30.4,12.9-30.4,30.9c0,17.9,13,30.9,30.4,30.9c9.3,0,17.3-3.5,22.6-10l-6.8-6.9
					C315.8,59.9,310.7,62.3,304.8,62.3z"/>
			</g>
			<g>
				<path class="st9" d="M146.3,86.6V103h2.9V86.6H146.3z"/>
				<path class="st9" d="M167.4,86.6v11.1l-8.5-11.1h-2.4V103h2.8V91.9l8.5,11.1h2.4V86.6H167.4z"/>
				<path class="st9" d="M188.6,86.6l-5.2,12.6l-5.2-12.6h-3.1l6.8,16.4h2.8l6.7-16.4H188.6z"/>
				<path class="st9" d="M196.2,93.4v2.5h10.4v-2.5H196.2z M196.2,86.6v2.5h11.3v-2.5H196.2z M196.2,100.4v2.5h11.6v-2.5H196.2z"/>
				<path class="st9" d="M225,86.6v11.1l-8.5-11.1h-2.4V103h2.8V91.9l8.5,11.1h2.4V86.6H225z"/>
				<path class="st9" d="M233.2,86.6v2.6h5.1V103h2.9V89.2h5.1v-2.6H233.2z"/>
				<path class="st9" d="M258.4,86.6h-2.8l-7,16.4h3l5.4-13.3l5.4,13.3h3L258.4,86.6z"/>
				<path class="st9" d="M277.2,86.6h-6.8V103h6.8c5,0,8.4-3.3,8.4-8.2C285.6,89.9,282.2,86.6,277.2,86.6z M277,100.4h-3.8V89.2h3.8
					c3.5,0,5.7,2.2,5.7,5.6C282.7,98.2,280.5,100.4,277,100.4z"/>
				<path class="st9" d="M299,86.4c-4.8,0-8.3,3.6-8.3,8.4c0,4.8,3.5,8.4,8.3,8.4c4.8,0,8.3-3.5,8.3-8.4
					C307.3,89.9,303.8,86.4,299,86.4z M299,100.5c-3.1,0-5.4-2.4-5.4-5.7c0-3.3,2.3-5.8,5.4-5.8c3.1,0,5.4,2.4,5.4,5.8
					C304.4,98.1,302.1,100.5,299,100.5z"/>
				<path class="st9" d="M323.1,97.6c2.1-0.9,3.3-2.7,3.3-5.2c0-3.6-2.5-5.8-6.6-5.8h-6.4V103h2.9v-4.8h3.5c0.2,0,0.4,0,0.6,0
					l3.2,4.8h3.1L323.1,97.6z M319.7,95.7h-3.4v-6.5h3.4c2.5,0,3.8,1.2,3.8,3.3C323.5,94.5,322.2,95.7,319.7,95.7z"/>
			</g>
		</g>
	</g>
</g>
</svg>
