<svg width="48" height="48" viewBox="0 0 48 48" fill="none" xmlns="http://www.w3.org/2000/svg">
<rect width="48" height="48" rx="10" fill="#5069E7"/>
<path d="M34.4483 13H14C11.7909 13 10 14.7909 10 17V31C10 33.2091 11.7909 35 14 35H34.4483C36.6574 35 38.4483 33.2091 38.4483 31V17C38.4483 14.7909 36.6574 13 34.4483 13Z" stroke="white" stroke-width="2" stroke-miterlimit="10"/>
<path d="M26.1207 29.4897C26.1207 30.0586 25.8931 30.5897 25.4759 31.0069C25.0586 31.4241 24.4897 31.6517 23.8448 31.7276V33.0552H23.3138V31.7276C22.669 31.6517 22.1 31.4241 21.6828 31.0069C21.2655 30.5897 21.0379 30.0966 21.0379 29.4897V27.1H22.7828V30.4379C22.7828 31.0069 23.0483 31.3103 23.5414 31.3103C24.0345 31.3103 24.3 31.0069 24.3 30.4379V27.8586C24.3 27.1379 24.1103 26.4931 23.769 25.9241L21.569 22.5103C21.1897 21.9034 21 21.2586 21 20.5379V18.5655C21 17.9966 21.2276 17.4655 21.6448 17.0483C22.0621 16.631 22.631 16.4034 23.2759 16.3276V15H23.8448V16.3276C24.4897 16.4034 25.0586 16.631 25.4759 17.0483C25.8931 17.4655 26.1207 17.9586 26.1207 18.5655V20.9552H24.3759V17.6172C24.3759 17.0483 24.1103 16.7448 23.6172 16.7448C23.0862 16.7448 22.8586 17.0483 22.8586 17.6172V20.0828C22.8586 20.8034 23.0483 21.4483 23.3897 21.9793L25.5897 25.3931C25.969 26 26.1586 26.6448 26.1586 27.3655V29.4897H26.1207Z" fill="white"/>
</svg>
