<?xml version="1.0" encoding="utf-8"?>
<!-- Generator: Adobe Illustrator 23.0.5, SVG Export Plug-In . SVG Version: 6.00 Build 0)  -->
<svg version="1.1" id="Layer_1" xmlns="http://www.w3.org/2000/svg" xmlns:xlink="http://www.w3.org/1999/xlink" x="0px" y="0px"
	 viewBox="0 0 111 93.8" style="enable-background:new 0 0 111 93.8;" xml:space="preserve">
<style type="text/css">
	.st0{fill:url(#SVGID_1_);}
	.st1{fill:url(#SVGID_2_);}
	.st2{fill:url(#SVGID_3_);}
	.st3{fill:url(#SVGID_4_);}
	.st4{opacity:0.2;fill:url(#SVGID_5_);enable-background:new    ;}
	.st5{opacity:0.2;fill:url(#SVGID_6_);enable-background:new    ;}
	.st6{opacity:0.2;fill:url(#SVGID_7_);enable-background:new    ;}
	.st7{opacity:0.2;fill:url(#SVGID_8_);enable-background:new    ;}
	.st8{opacity:0.2;fill:url(#SVGID_9_);enable-background:new    ;}
</style>
<g>
	<g>
		
			<linearGradient id="SVGID_1_" gradientUnits="userSpaceOnUse" x1="7.761376e-02" y1="746.7516" x2="85.0543" y2="858.1005" gradientTransform="matrix(1 0 0 1 0 -728)">
			<stop  offset="0" style="stop-color:#6416EC"/>
			<stop  offset="1" style="stop-color:#33E0E0"/>
		</linearGradient>
		<path class="st0" d="M74.6,76.7l-9.8,17.1H18.7L0,61.4l17.6-30.5H48l5.2,9H22.8L14,55.3l8.8,15.3h41.7l3.3-5.7l0,0L74.6,76.7z"/>
		
			<linearGradient id="SVGID_2_" gradientUnits="userSpaceOnUse" x1="25.3938" y1="727.4314" x2="110.3705" y2="838.7803" gradientTransform="matrix(1 0 0 1 0 -728)">
			<stop  offset="0" style="stop-color:#6416EC"/>
			<stop  offset="1" style="stop-color:#33E0E0"/>
		</linearGradient>
		<polygon class="st1" points="111,93.8 92.4,93.8 50.9,21.9 14,21.9 18.7,13.8 64.9,13.8 		"/>
		
			<linearGradient id="SVGID_3_" gradientUnits="userSpaceOnUse" x1="82.9792" y1="722.7079" x2="108.0955" y2="772.522" gradientTransform="matrix(1 0 0 1 0 -728)">
			<stop  offset="0" style="stop-color:#6416EC"/>
			<stop  offset="1" style="stop-color:#33E0E0"/>
		</linearGradient>
		<polygon class="st2" points="110.9,13.8 91.9,46.8 85,35 97.4,13.8 		"/>
		
			<linearGradient id="SVGID_4_" gradientUnits="userSpaceOnUse" x1="96.5419" y1="715.8696" x2="121.6581" y2="765.6837" gradientTransform="matrix(1 0 0 1 0 -728)">
			<stop  offset="0" style="stop-color:#6416EC"/>
			<stop  offset="1" style="stop-color:#33E0E0"/>
		</linearGradient>
		<polygon class="st3" points="111,0 98.4,0 98.4,8.1 111,12 		"/>
		
			<linearGradient id="SVGID_5_" gradientUnits="userSpaceOnUse" x1="11.8907" y1="794.8076" x2="45.7319" y2="749.8365" gradientTransform="matrix(1 0 0 1 0 -728)">
			<stop  offset="0" style="stop-color:#FFFFFF"/>
			<stop  offset="1" style="stop-color:#474EFF;stop-opacity:0"/>
		</linearGradient>
		<polygon class="st4" points="14,55.3 22.8,70.6 0,61.4 17.6,31 48,31 53.3,40 22.8,40 		"/>
		
			<linearGradient id="SVGID_6_" gradientUnits="userSpaceOnUse" x1="28.8892" y1="817.7505" x2="65.1368" y2="807.6733" gradientTransform="matrix(1 0 0 1 0 -728)">
			<stop  offset="0" style="stop-color:#FFFFFF"/>
			<stop  offset="1" style="stop-color:#474EFF;stop-opacity:0"/>
		</linearGradient>
		<path class="st5" d="M74.6,76.7l-9.8,17.1H18.7L58.5,81l6-10.4l3.3-5.7l0,0L74.6,76.7z"/>
		
			<linearGradient id="SVGID_7_" gradientUnits="userSpaceOnUse" x1="74.005" y1="756.7696" x2="97.7691" y2="812.5699" gradientTransform="matrix(1 0 0 1 0 -728)">
			<stop  offset="0" style="stop-color:#FFFFFF"/>
			<stop  offset="1" style="stop-color:#474EFF;stop-opacity:0"/>
		</linearGradient>
		<polygon class="st6" points="111,93.8 92.4,93.8 64.9,13.8 		"/>
		
			<linearGradient id="SVGID_8_" gradientUnits="userSpaceOnUse" x1="17.8851" y1="745.8588" x2="44.206" y2="746.0092" gradientTransform="matrix(1 0 0 1 0 -728)">
			<stop  offset="0" style="stop-color:#FFFFFF"/>
			<stop  offset="1" style="stop-color:#474EFF;stop-opacity:0"/>
		</linearGradient>
		<polygon class="st7" points="50.9,21.9 14,21.9 18.7,13.8 		"/>
		
			<linearGradient id="SVGID_9_" gradientUnits="userSpaceOnUse" x1="91.3578" y1="751.3931" x2="88.1993" y2="771.5473" gradientTransform="matrix(1 0 0 1 0 -728)">
			<stop  offset="0" style="stop-color:#FFFFFF"/>
			<stop  offset="1" style="stop-color:#474EFF;stop-opacity:0"/>
		</linearGradient>
		<polygon class="st8" points="97.4,13.8 91.9,46.8 85,35 		"/>
	</g>
</g>
</svg>
