<?xml version="1.0" encoding="utf-8"?>
<!-- Generator: Adobe Illustrator 23.0.5, SVG Export Plug-In . SVG Version: 6.00 Build 0)  -->
<svg version="1.1" id="Layer_1" xmlns="http://www.w3.org/2000/svg" xmlns:xlink="http://www.w3.org/1999/xlink" x="0px" y="0px"
	 viewBox="0 0 326.8 114" style="enable-background:new 0 0 326.8 114;" xml:space="preserve">
<style type="text/css">
	.st0{fill:url(#SVGID_1_);}
	.st1{fill:url(#SVGID_2_);}
	.st2{fill:url(#SVGID_3_);}
	.st3{fill:url(#SVGID_4_);}
	.st4{opacity:0.2;fill:url(#SVGID_5_);enable-background:new    ;}
	.st5{opacity:0.2;fill:url(#SVGID_6_);enable-background:new    ;}
	.st6{opacity:0.2;fill:url(#SVGID_7_);enable-background:new    ;}
	.st7{opacity:0.2;fill:url(#SVGID_8_);enable-background:new    ;}
	.st8{opacity:0.2;fill:url(#SVGID_9_);enable-background:new    ;}
	.st9{fill:url(#SVGID_10_);}
	.st10{fill:url(#SVGID_11_);}
	.st11{fill:url(#SVGID_12_);}
	.st12{fill:url(#SVGID_13_);}
	.st13{opacity:0.2;fill:url(#SVGID_14_);enable-background:new    ;}
	.st14{opacity:0.2;fill:url(#SVGID_15_);enable-background:new    ;}
	.st15{opacity:0.2;fill:url(#SVGID_16_);enable-background:new    ;}
	.st16{opacity:0.2;fill:url(#SVGID_17_);enable-background:new    ;}
	.st17{opacity:0.2;fill:url(#SVGID_18_);enable-background:new    ;}
	.st18{fill:#FFFFFF;}
	.st19{opacity:0.2;fill:#FFFFFF;enable-background:new    ;}
	.st20{opacity:0.2;enable-background:new    ;}
</style>
<g>
	<g>
		<path class="st18" d="M74.5,87l-9.8,17.1H18.6L-0.1,71.7l17.6-30.5h30.4l5.2,9H22.7l-8.8,15.4l8.8,15.3h41.7l3.3-5.7l0,0L74.5,87z
			"/>
		<polygon class="st18" points="110.9,104.1 92.3,104.1 50.8,32.2 13.9,32.2 18.6,24.1 64.8,24.1 		"/>
		<polygon class="st18" points="110.8,24.1 91.8,57.1 84.9,45.3 97.3,24.1 		"/>
		<polygon class="st18" points="110.9,10.3 98.3,10.3 98.3,18.4 110.9,22.3 		"/>
		<polygon class="st19" points="13.9,65.6 22.7,80.9 -0.1,71.7 17.5,41.3 47.9,41.3 53.2,50.3 22.7,50.3 		"/>
		<path class="st19" d="M74.5,87l-9.8,17.1H18.6l39.8-12.8l6-10.4l3.3-5.7l0,0L74.5,87z"/>
		<polygon class="st19" points="110.9,104.1 92.3,104.1 64.8,24.1 		"/>
		<polygon class="st19" points="50.8,32.2 13.9,32.2 18.6,24.1 		"/>
		<polygon class="st19" points="97.3,24.1 91.8,57.1 84.9,45.3 		"/>
	</g>
	<polygon class="st18" points="129.3,113.5 127.4,114 127.4,0.4 129.3,0 	"/>
	<g>
		<g>
			<g>
				<path class="st18" d="M182.1,11.1h-10.4l-25.6,60.1H157l19.8-48.9l19.9,48.9h11L182.1,11.1z"/>
				<path class="st18" d="M253.6,51.5c7.7-3.2,12.1-9.9,12.1-18.9c0-13.3-9.2-21.4-24.2-21.4h-23.4v60.1h10.6V53.7h12.8
					c0.7,0,1.4,0,2.2-0.1l11.6,17.6h11.4L253.6,51.5z M240.9,44.5h-12.3v-24h12.3c9.2,0,14,4.4,14,11.9
					C254.9,40,250.1,44.5,240.9,44.5z"/>
				<path class="st18" d="M304.8,62.3c-11.8,0-20.3-8.7-20.3-21.1s8.5-21.1,20.3-21.1c5.9,0,11,2.3,15.2,7l6.8-6.8
					c-5.3-6.5-13.3-10-22.5-10c-17.4,0-30.4,12.9-30.4,30.9c0,17.9,13,30.9,30.4,30.9c9.3,0,17.3-3.5,22.6-10l-6.8-6.9
					C315.8,59.9,310.7,62.3,304.8,62.3z"/>
			</g>
			<g>
				<path class="st18" d="M146.3,86.6V103h2.9V86.6H146.3z"/>
				<path class="st18" d="M167.3,86.6v11.1l-8.5-11.1h-2.4V103h2.8V91.9l8.5,11.1h2.4V86.6H167.3z"/>
				<path class="st18" d="M188.6,86.6l-5.2,12.6l-5.2-12.6h-3.1l6.8,16.4h2.8l6.7-16.4H188.6z"/>
				<path class="st18" d="M196.1,93.4v2.5h10.4v-2.5H196.1z M196.1,86.6v2.5h11.3v-2.5H196.1z M196.1,100.4v2.5h11.6v-2.5H196.1z"/>
				<path class="st18" d="M224.9,86.6v11.1l-8.5-11.1h-2.4V103h2.8V91.9l8.5,11.1h2.4V86.6H224.9z"/>
				<path class="st18" d="M233.1,86.6v2.6h5.1V103h2.9V89.2h5.1v-2.6H233.1z"/>
				<path class="st18" d="M258.3,86.6h-2.8l-7,16.4h3l5.4-13.3l5.4,13.3h3L258.3,86.6z"/>
				<path class="st18" d="M277.2,86.6h-6.8V103h6.8c5,0,8.4-3.3,8.4-8.2C285.5,89.9,282.2,86.6,277.2,86.6z M277,100.4h-3.8V89.2
					h3.8c3.5,0,5.7,2.2,5.7,5.6S280.5,100.4,277,100.4z"/>
				<path class="st18" d="M299,86.4c-4.8,0-8.3,3.6-8.3,8.4s3.5,8.4,8.3,8.4s8.3-3.5,8.3-8.4S303.8,86.4,299,86.4z M299,100.5
					c-3.1,0-5.4-2.4-5.4-5.7c0-3.3,2.3-5.8,5.4-5.8c3.1,0,5.4,2.4,5.4,5.8C304.3,98.1,302,100.5,299,100.5z"/>
				<path class="st18" d="M323,97.6c2.1-0.9,3.3-2.7,3.3-5.2c0-3.6-2.5-5.8-6.6-5.8h-6.4V103h2.9v-4.8h3.5c0.2,0,0.4,0,0.6,0
					l3.2,4.8h3.1L323,97.6z M319.7,95.7h-3.4v-6.5h3.4c2.5,0,3.8,1.2,3.8,3.3C323.5,94.5,322.2,95.7,319.7,95.7z"/>
			</g>
		</g>
	</g>
</g>
</svg>
