<?xml version="1.0" encoding="utf-8"?>
<!-- Generator: Adobe Illustrator 23.0.5, SVG Export Plug-In . SVG Version: 6.00 Build 0)  -->
<svg version="1.1" id="Layer_1" xmlns="http://www.w3.org/2000/svg" xmlns:xlink="http://www.w3.org/1999/xlink" x="0px" y="0px"
	 viewBox="0 0 32 32" style="enable-background:new 0 0 32 32;" xml:space="preserve">
<style type="text/css">
	.st0{fill:#0062FF;}
	.st1{fill:#FFFFFF;}
</style>
<g>
	<g>
		<path class="st0" d="M28,32H4c-2.2,0-4-1.8-4-4V4c0-2.2,1.8-4,4-4h24c2.2,0,4,1.8,4,4v24C32,30.2,30.2,32,28,32z"/>
	</g>
</g>
<g>
	<path class="st1" d="M16,20.1c-0.2,0-0.2,0-0.3,0c-1,0-2-0.1-3-0.1c-0.1,0-0.3,0-0.4,0c-0.9,0.2-1.5,0.9-1.5,1.7
		c-0.1,1.1,0.4,1.8,1.4,2.1c2,0.6,4,1.3,6.1,1.9c1.1,0.3,2.2,0.1,3-0.6c0.9-0.8,1.7-1.6,2.5-2.5c0.1-0.1,0.2-0.3,0.2-0.5
		c0-0.3-0.2-0.4-0.4-0.5c-0.3-0.1-0.5,0-0.7,0.2c-0.8,0.8-1.5,1.5-2.3,2.3c-0.5,0.5-1.2,0.7-1.9,0.5c-2-0.6-4-1.3-6.1-1.9
		c-0.4-0.1-0.6-0.5-0.5-0.9c0.1-0.4,0.4-0.6,0.8-0.6c1,0,2,0.1,2.9,0.1c0.3,0,0.5-0.1,0.8-0.2c0.8-0.4,0.9-1.5,0.2-2.1
		c-2.2-2.2-4.3-4.3-6.5-6.5c-0.1-0.1-0.2-0.2-0.3-0.3c-0.4-0.5-0.1-1.2,0.5-1.3c0.4-0.1,0.6,0.1,0.9,0.3c1.3,1.3,2.5,2.5,3.8,3.8
		c0.3,0.3,0.6,0.3,0.9,0.1c1.2-0.8,2.3-1.6,3.5-2.4c0.3-0.2,0.6-0.4,0.8-0.5c0.4-0.2,0.7-0.1,1,0.2c0.2,0.2,0.4,0.5,0.6,0.7
		c0.6,1,1.3,2,1.9,3c0.7,1.1,1.3,2.1,2,3.2c0.1,0.2,0.3,0.4,0.6,0.4c0.5,0,0.7-0.5,0.5-1c-0.4-0.6-0.8-1.2-1.1-1.8
		c-1-1.6-1.9-3.2-2.9-4.7c-0.5-0.8-1.2-1.3-2.1-1.4c-0.7,0-1.3,0.3-1.9,0.7c-1,0.7-2,1.4-2.9,2.1c-0.2,0.1-0.3,0.1-0.5-0.1
		c-1.1-1.1-2.2-2.2-3.3-3.3C11.1,9.3,9.3,9.6,8.8,11c-0.3,0.8-0.1,1.7,0.5,2.4c2.2,2.2,4.3,4.3,6.5,6.5C15.9,19.9,15.9,20,16,20.1z
		 M6.2,11.7c0-0.1,0-0.3,0-0.4c0-0.1,0-0.2,0-0.3c0.4-1.9,1.4-3.1,3.3-3.6c1.8-0.5,3.3,0.1,4.5,1.5c0.2,0.3,0.4,0.6,0.6,0.8
		c0.2,0.3,0.5,0.4,0.8,0.3c0.3-0.1,0.4-0.4,0.3-0.7c0-0.1-0.1-0.2-0.2-0.4c-1.2-2-3.5-3.1-5.8-2.8c-3.8,0.6-6,4.7-4.2,8.2
		c0.6,1.1,1.4,1.9,2.5,2.5c0.3,0.2,0.7,0.1,0.9-0.2c0.2-0.3,0.1-0.6-0.2-0.8c-0.1-0.1-0.2-0.1-0.3-0.2C7,14.6,6.2,13.3,6.2,11.7z"/>
	<path class="st1" d="M16,20.1c-0.1-0.1-0.2-0.2-0.3-0.3c-2.2-2.2-4.3-4.3-6.5-6.5c-0.7-0.7-0.9-1.5-0.5-2.4
		c0.6-1.4,2.4-1.7,3.5-0.7c1.1,1.1,2.2,2.2,3.3,3.3c0.2,0.2,0.3,0.2,0.5,0.1c1-0.7,2-1.4,2.9-2.1c0.6-0.4,1.2-0.7,1.9-0.7
		c0.9,0.1,1.6,0.6,2.1,1.4c1,1.6,2,3.1,2.9,4.7c0.4,0.6,0.8,1.2,1.1,1.8c0.3,0.4,0,1-0.5,1c-0.3,0-0.5-0.1-0.6-0.4
		c-0.7-1.1-1.3-2.1-2-3.2c-0.6-1-1.3-2-1.9-3c-0.2-0.3-0.4-0.5-0.6-0.7c-0.3-0.3-0.6-0.4-1-0.2c-0.3,0.1-0.6,0.3-0.8,0.5
		c-1.2,0.8-2.3,1.6-3.5,2.4c-0.4,0.2-0.6,0.2-0.9-0.1c-1.3-1.3-2.5-2.5-3.8-3.8c-0.2-0.2-0.5-0.4-0.9-0.3c-0.6,0.1-0.8,0.8-0.5,1.3
		c0.1,0.1,0.2,0.2,0.3,0.3c2.2,2.2,4.3,4.3,6.5,6.5c0.7,0.7,0.6,1.7-0.2,2.1c-0.2,0.1-0.5,0.2-0.8,0.2c-1,0-2-0.1-2.9-0.1
		c-0.4,0-0.7,0.2-0.8,0.6c-0.1,0.4,0.1,0.7,0.5,0.9c2,0.6,4,1.3,6.1,1.9c0.7,0.2,1.4,0,1.9-0.5c0.8-0.8,1.5-1.5,2.3-2.3
		c0.2-0.2,0.4-0.3,0.7-0.2c0.2,0.1,0.4,0.3,0.4,0.5c0,0.2-0.1,0.4-0.2,0.5c-0.8,0.8-1.6,1.7-2.5,2.5c-0.9,0.8-1.9,1-3,0.6
		c-2-0.6-4-1.3-6.1-1.9c-1-0.3-1.4-1.1-1.4-2.1c0-0.8,0.7-1.6,1.5-1.7c0.1,0,0.2,0,0.4,0c1,0,2,0.1,3,0.1
		C15.8,20.2,15.9,20.2,16,20.1z"/>
	<path class="st1" d="M6.2,11.7c0.1,1.7,0.8,3,2.2,3.8c0.1,0.1,0.2,0.1,0.3,0.2c0.3,0.2,0.4,0.6,0.2,0.8c-0.2,0.3-0.5,0.4-0.9,0.2
		c-1.1-0.6-1.9-1.4-2.5-2.5c-1.7-3.4,0.4-7.6,4.2-8.2c2.3-0.4,4.6,0.7,5.8,2.8c0.1,0.1,0.1,0.2,0.2,0.4c0.1,0.3-0.1,0.6-0.3,0.7
		c-0.3,0.1-0.6,0-0.8-0.3c-0.2-0.3-0.3-0.6-0.6-0.8c-1.2-1.4-2.8-1.9-4.5-1.5C7.7,7.8,6.6,9.1,6.2,11c0,0.1,0,0.2,0,0.3
		C6.2,11.4,6.2,11.5,6.2,11.7z"/>
</g>
</svg>
