<?xml version="1.0" encoding="utf-8"?>
<!-- Generator: Adobe Illustrator 23.0.5, SVG Export Plug-In . SVG Version: 6.00 Build 0)  -->
<svg version="1.1" id="Layer_1" xmlns="http://www.w3.org/2000/svg" xmlns:xlink="http://www.w3.org/1999/xlink" x="0px" y="0px"
	 viewBox="0 0 32 32" style="enable-background:new 0 0 32 32;" xml:space="preserve">
<style type="text/css">
	.st0{fill:#D64E95;}
	.st1{fill:#52BFD0;}
	.st2{fill:#E8D100;}
	.st3{fill:#EA534C;}
	.st4{fill:#5464AC;}
	.st5{fill:#816AAD;}
	.st6{fill:#EF9B6E;}
	.st7{fill:#EF7A70;}
	.st8{fill:#69BC94;}
	.st9{fill:#D692BF;}
	.st10{fill:#56C1DA;}
	.st11{fill:#4AA686;}
	.st12{fill:#67549F;}
	.st13{fill:#993054;}
	.st14{fill:#282352;}
	.st15{fill:#D03D4E;}
	.st16{fill:#FFFFFF;}
</style>
<g>
	<g>
		<g>
			<path class="st15" d="M28,32H4c-2.2,0-4-1.8-4-4V4c0-2.2,1.8-4,4-4h24c2.2,0,4,1.8,4,4v24C32,30.2,30.2,32,28,32z"/>
		</g>
	</g>
</g>
<g>
	<g>
		<g>
			<g>
				<path class="st16" d="M13.5,16.4c-0.1,0-0.3,0-0.4-0.1c-1.6-1-2.6-2.8-2.6-4.7C10.5,8.5,13,6,16.1,6c3.1,0,5.6,2.5,5.6,5.6
					c0,1.9-0.9,3.6-2.5,4.6c-0.3,0.2-0.8,0.1-1-0.2c-0.2-0.3-0.1-0.8,0.2-1c1.1-0.8,1.8-2,1.8-3.4c0-2.3-1.8-4.1-4.1-4.1
					S12,9.3,12,11.6c0,1.4,0.7,2.7,1.9,3.4c0.3,0.2,0.5,0.7,0.2,1C14,16.3,13.7,16.4,13.5,16.4z"/>
			</g>
		</g>
		<g>
			<g>
				<path class="st16" d="M14.5,26c-2.8,0-6.1-0.3-7.1-1.7C5.8,22,7.6,19,7.7,18.9c1.9-2.6,4.3-3.6,5.5-4c0.4-0.1,0.8,0.1,0.9,0.5
					c0.1,0.4-0.1,0.8-0.5,0.9c-0.9,0.3-3,1.1-4.7,3.4l0,0c0,0-1.4,2.2-0.3,3.7c0.7,1,5.4,1.2,9.4,0.9c0.4,0,0.8,0.3,0.8,0.7
					c0,0.4-0.3,0.8-0.7,0.8C17.4,25.9,16,26,14.5,26z"/>
			</g>
		</g>
		<g>
			<g>
				<path class="st16" d="M21.5,17.9c-0.2,0-0.3,0-0.4-0.1c0,0-1.4-1-2.5-1.4c-0.4-0.1-0.6-0.6-0.5-0.9c0.1-0.4,0.5-0.6,0.9-0.5
					c1.4,0.5,2.9,1.6,2.9,1.6c0.3,0.2,0.4,0.7,0.2,1C21.9,17.8,21.7,17.9,21.5,17.9z"/>
			</g>
		</g>
	</g>
	<g>
		<g>
			<path class="st16" d="M19.3,24.8c-0.1,0-0.2,0-0.3-0.1c-0.1-0.1-0.1-0.2-0.1-0.3l0.3-1.8c0-0.1,0-0.1,0.1-0.2l3.6-3.7
				c0.1-0.1,0.2-0.1,0.3-0.1c0.1,0,0.2,0,0.3,0.1l1.7,1.7c0.1,0.1,0.1,0.4,0,0.5l-3.7,3.7c-0.1,0.1-0.1,0.1-0.2,0.1L19.3,24.8
				C19.3,24.8,19.3,24.8,19.3,24.8z M19.9,22.8L19.7,24l1.3-0.1l3.3-3.3l-1.2-1.2L19.9,22.8z"/>
		</g>
	</g>
	<g>
		<g>
			<path class="st16" d="M21.2,24.7c-0.1,0-0.2,0-0.3-0.1l-1.6-1.7c-0.1-0.1-0.1-0.4,0-0.5c0.1-0.1,0.4-0.1,0.5,0l1.6,1.7
				c0.1,0.1,0.1,0.4,0,0.5C21.4,24.6,21.3,24.7,21.2,24.7z"/>
		</g>
	</g>
	<g>
		<g>
			<path class="st16" d="M24,21.9c-0.1,0-0.2,0-0.3-0.1L22,20.1c-0.1-0.1-0.2-0.4,0-0.5c0.1-0.2,0.4-0.2,0.5,0l1.7,1.7
				c0.1,0.1,0.2,0.4,0,0.5C24.2,21.8,24.1,21.9,24,21.9z"/>
		</g>
	</g>
</g>
</svg>
