<?xml version="1.0" encoding="utf-8"?>
<!-- Generator: Adobe Illustrator 23.0.5, SVG Export Plug-In . SVG Version: 6.00 Build 0)  -->
<svg version="1.1" id="Layer_1" xmlns="http://www.w3.org/2000/svg" xmlns:xlink="http://www.w3.org/1999/xlink" x="0px" y="0px"
	 viewBox="0 0 32 32" style="enable-background:new 0 0 32 32;" xml:space="preserve">
<style type="text/css">
	.st0{fill:#D64E95;}
	.st1{fill:#52BFD0;}
	.st2{fill:#E8D100;}
	.st3{fill:#EA534C;}
	.st4{fill:#5464AC;}
	.st5{fill:#816AAD;}
	.st6{fill:#EF9B6E;}
	.st7{fill:#EF7A70;}
	.st8{fill:#69BC94;}
	.st9{fill:#D692BF;}
	.st10{fill:#56C1DA;}
	.st11{fill:#4AA686;}
	.st12{fill:#67549F;}
	.st13{fill:#993054;}
	.st14{fill:#282352;}
	.st15{fill:#D03D4E;}
	.st16{fill:#FFFFFF;}
</style>
<g>
	<g>
		<g>
			<path class="st12" d="M28,32H4c-2.2,0-4-1.8-4-4V4c0-2.2,1.8-4,4-4h24c2.2,0,4,1.8,4,4v24C32,30.2,30.2,32,28,32z"/>
		</g>
	</g>
</g>
<g>
	<g>
		<g>
			<path class="st16" d="M16,26c-5.5,0-10-4.5-10-10c0-5.5,4.5-10,10-10c1.4,0,2.7,0.3,4,0.8c0.4,0.2,0.5,0.6,0.4,0.9
				c-0.2,0.4-0.6,0.5-0.9,0.4c-1.1-0.5-2.2-0.7-3.4-0.7c-4.7,0-8.6,3.8-8.6,8.6c0,4.7,3.8,8.6,8.6,8.6c4.7,0,8.6-3.8,8.6-8.6
				c0-0.9-0.1-1.8-0.4-2.7c-0.1-0.4,0.1-0.8,0.5-0.9c0.4-0.1,0.8,0.1,0.9,0.5c0.3,1,0.5,2.1,0.5,3.1C26,21.5,21.5,26,16,26z"/>
		</g>
	</g>
	<g>
		<g>
			<path class="st16" d="M16.3,19.7C16.3,19.7,16.3,19.7,16.3,19.7c-0.3,0-0.6-0.2-0.7-0.5c-1.1-3.1-3.4-3.8-3.5-3.8
				c-0.4-0.1-0.6-0.5-0.5-0.9c0.1-0.4,0.5-0.6,0.9-0.5c0.1,0,2.3,0.7,3.7,3.3c1.2-2.4,4.1-7.3,8.5-9.9c0.3-0.2,0.8-0.1,1,0.2
				c0.2,0.3,0.1,0.8-0.2,1c-5.4,3.2-8.5,10.6-8.6,10.6C16.8,19.5,16.6,19.7,16.3,19.7z"/>
		</g>
	</g>
</g>
</svg>
