<?xml version="1.0" encoding="utf-8"?>
<!-- Generator: Adobe Illustrator 23.0.5, SVG Export Plug-In . SVG Version: 6.00 Build 0)  -->
<svg version="1.1" id="Layer_1" xmlns="http://www.w3.org/2000/svg" xmlns:xlink="http://www.w3.org/1999/xlink" x="0px" y="0px"
	 viewBox="0 0 32 32" style="enable-background:new 0 0 32 32;" xml:space="preserve">
<style type="text/css">
	.st0{fill:#D64E95;}
	.st1{fill:#52BFD0;}
	.st2{fill:#E8D100;}
	.st3{fill:#EA534C;}
	.st4{fill:#5464AC;}
	.st5{fill:#816AAD;}
	.st6{fill:#EF9B6E;}
	.st7{fill:#EF7A70;}
	.st8{fill:#69BC94;}
	.st9{fill:#D692BF;}
	.st10{fill:#56C1DA;}
	.st11{fill:#4AA686;}
	.st12{fill:#67549F;}
	.st13{fill:#993054;}
	.st14{fill:#282352;}
	.st15{fill:#D03D4E;}
	.st16{fill:#FFFFFF;}
</style>
<g>
	<g>
		<g>
			<path class="st10" d="M28,32H4c-2.2,0-4-1.8-4-4V4c0-2.2,1.8-4,4-4h24c2.2,0,4,1.8,4,4v24C32,30.2,30.2,32,28,32z"/>
		</g>
	</g>
</g>
<g>
	<g>
		<g>
			<g>
				<path class="st16" d="M16.3,24.9h-5.2c-1.4,0-2.6-1.2-2.6-2.6V12l6-6h5c1.4,0,2.6,1.2,2.6,2.6v9.9l-1-1.2
					c-0.8-0.9-2.1-1.5-3.3-1.5c-2.5,0-4.5,2-4.5,4.5c0,1.4,0.6,2.6,1.7,3.5L16.3,24.9z M9.7,12.5v9.8c0,0.8,0.6,1.4,1.4,1.4h2.1
					c-0.7-1-1.1-2.1-1.1-3.4c0-3.1,2.5-5.7,5.7-5.7c1.1,0,2.3,0.3,3.2,1V8.6c0-0.8-0.6-1.4-1.4-1.4H15L9.7,12.5z"/>
			</g>
		</g>
	</g>
	<g>
		<g>
			<g>
				<path class="st16" d="M13.5,13.2h-5V12l6-6h1.4v4.8C15.9,12.2,14.9,13.2,13.5,13.2z M10.2,12.1h3.4c0.7,0,1.2-0.6,1.2-1.3V7.5
					L10.2,12.1z"/>
			</g>
		</g>
	</g>
	<g>
		<g>
			<g>
				<path class="st16" d="M17.8,26c-1.3,0-2.6-0.4-3.6-1.3c-1.3-1.1-2.1-2.7-2.1-4.4c0-3.1,2.5-5.7,5.7-5.7c1.6,0,3.2,0.7,4.2,1.9
					c0.9,1,1.4,2.4,1.4,3.8C23.5,23.5,20.9,26,17.8,26z M17.8,15.9c-2.5,0-4.5,2-4.5,4.5c0,1.4,0.6,2.6,1.7,3.5c0.8,0.6,1.8,1,2.8,1
					c2.5,0,4.5-2,4.5-4.5c0-1.1-0.4-2.2-1.1-3C20.3,16.4,19.1,15.9,17.8,15.9z"/>
			</g>
		</g>
	</g>
	<g>
		<g>
			<g>
				<rect x="17.2" y="17.6" class="st16" width="1.2" height="5.5"/>
			</g>
		</g>
	</g>
	<g>
		<g>
			<g>
				<rect x="15.1" y="19.8" class="st16" width="5.5" height="1.2"/>
			</g>
		</g>
	</g>
</g>
</svg>
