<?xml version="1.0" encoding="utf-8"?>
<!-- Generator: Adobe Illustrator 23.0.5, SVG Export Plug-In . SVG Version: 6.00 Build 0)  -->
<svg version="1.1" id="Layer_1" xmlns="http://www.w3.org/2000/svg" xmlns:xlink="http://www.w3.org/1999/xlink" x="0px" y="0px"
	 viewBox="0 0 32 32" style="enable-background:new 0 0 32 32;" xml:space="preserve">
<style type="text/css">
	.st0{fill:#D64E95;}
	.st1{fill:#52BFD0;}
	.st2{fill:#E8D100;}
	.st3{fill:#EA534C;}
	.st4{fill:#5464AC;}
	.st5{fill:#816AAD;}
	.st6{fill:#EF9B6E;}
	.st7{fill:#EF7A70;}
	.st8{fill:#69BC94;}
	.st9{fill:#D692BF;}
	.st10{fill:#56C1DA;}
	.st11{fill:#4AA686;}
	.st12{fill:#67549F;}
	.st13{fill:#993054;}
	.st14{fill:#282352;}
	.st15{fill:#D03D4E;}
	.st16{fill:#FFFFFF;}
</style>
<g>
	<g>
		<g>
			<path class="st7" d="M28,32H4c-2.2,0-4-1.8-4-4V4c0-2.2,1.8-4,4-4h24c2.2,0,4,1.8,4,4v24C32,30.2,30.2,32,28,32z"/>
		</g>
	</g>
</g>
<g>
	<g>
		<g>
			<path class="st16" d="M18.4,9.2h-5.2c-0.4,0-0.6-0.3-0.6-0.6V7.4C12.6,6.6,13.2,6,14,6h3.6C18.4,6,19,6.6,19,7.4v1.2
				C19,9,18.7,9.2,18.4,9.2z M13.9,8h3.9V7.4c0-0.1-0.1-0.2-0.2-0.2H14c-0.1,0-0.2,0.1-0.2,0.2V8z"/>
		</g>
	</g>
	<g>
		<g>
			<path class="st16" d="M23.5,12H8.5c-0.4,0-0.6-0.3-0.6-0.6V9.8c0-1,0.8-1.9,1.9-1.9h12.5c1,0,1.9,0.8,1.9,1.9v1.5
				C24.1,11.7,23.8,12,23.5,12z M9.2,10.7h13.6V9.8c0-0.3-0.3-0.6-0.6-0.6H9.8c-0.3,0-0.6,0.3-0.6,0.6V10.7z"/>
		</g>
	</g>
	<g>
		<g>
			<path class="st16" d="M20.5,26h-9.3c-1.3,0-2.3-1.1-2.3-2.3V11.3c0-0.4,0.3-0.6,0.6-0.6h12.7c0.4,0,0.6,0.3,0.6,0.6v12.3
				C22.8,24.9,21.8,26,20.5,26z M10.2,12v11.7c0,0.6,0.5,1.1,1.1,1.1h9.3c0.6,0,1.1-0.5,1.1-1.1V12H10.2z"/>
		</g>
	</g>
	<g>
		<g>
			<path class="st16" d="M13,22.3c-0.4,0-0.6-0.3-0.6-0.6v-6.6c0-0.4,0.3-0.6,0.6-0.6c0.4,0,0.6,0.3,0.6,0.6v6.6
				C13.7,22,13.4,22.3,13,22.3z"/>
		</g>
	</g>
	<g>
		<g>
			<g>
				<path class="st16" d="M15.9,22.3c-0.4,0-0.6-0.3-0.6-0.6v-6.6c0-0.4,0.3-0.6,0.6-0.6c0.4,0,0.6,0.3,0.6,0.6v6.6
					C16.5,22,16.2,22.3,15.9,22.3z"/>
			</g>
		</g>
	</g>
	<g>
		<g>
			<g>
				<path class="st16" d="M18.7,22.3c-0.4,0-0.6-0.3-0.6-0.6v-6.6c0-0.4,0.3-0.6,0.6-0.6c0.4,0,0.6,0.3,0.6,0.6v6.6
					C19.3,22,19,22.3,18.7,22.3z"/>
			</g>
		</g>
	</g>
</g>
</svg>
