<?xml version="1.0" encoding="utf-8"?>
<!-- Generator: Adobe Illustrator 23.0.5, SVG Export Plug-In . SVG Version: 6.00 Build 0)  -->
<svg version="1.1" id="Layer_1" xmlns="http://www.w3.org/2000/svg" xmlns:xlink="http://www.w3.org/1999/xlink" x="0px" y="0px"
	 viewBox="0 0 32 32" style="enable-background:new 0 0 32 32;" xml:space="preserve">
<style type="text/css">
	.st0{fill:#D64E95;}
	.st1{fill:#52BFD0;}
	.st2{fill:#E8D100;}
	.st3{fill:#EA534C;}
	.st4{fill:#5464AC;}
	.st5{fill:#816AAD;}
	.st6{fill:#EF9B6E;}
	.st7{fill:#EF7A70;}
	.st8{fill:#69BC94;}
	.st9{fill:#D692BF;}
	.st10{fill:#56C1DA;}
	.st11{fill:#4AA686;}
	.st12{fill:#67549F;}
	.st13{fill:#993054;}
	.st14{fill:#282352;}
	.st15{fill:#D03D4E;}
	.st16{fill:#FFFFFF;}
</style>
<g>
	<g>
		<g>
			<path class="st5" d="M28,32H4c-2.2,0-4-1.8-4-4V4c0-2.2,1.8-4,4-4h24c2.2,0,4,1.8,4,4v24C32,30.2,30.2,32,28,32z"/>
		</g>
	</g>
</g>
<g>
	<g>
		<g>
			<path class="st16" d="M23.2,25.1H6.7c-0.4,0-0.7-0.3-0.7-0.7V11.1c0-0.4,0.3-0.7,0.7-0.7h6.8c0.4,0,0.7,0.3,0.7,0.7
				s-0.3,0.7-0.7,0.7H7.4v12h15.2v-5.2c0-0.4,0.3-0.7,0.7-0.7s0.7,0.3,0.7,0.7v5.9C23.9,24.8,23.6,25.1,23.2,25.1z"/>
		</g>
	</g>
	<g>
		<g>
			<path class="st16" d="M10.8,20.3c-0.1,0-0.2,0-0.3-0.1c-0.3-0.1-0.4-0.4-0.4-0.7c0.1-0.3,1.4-7.3,8.6-9.6V7.6
				c0-0.3,0.2-0.5,0.4-0.6c0.3-0.1,0.5,0,0.7,0.1l5.9,5.9c0.1,0.1,0.2,0.3,0.2,0.5s-0.1,0.4-0.2,0.5l-5.9,5.9
				c-0.2,0.2-0.5,0.3-0.7,0.1c-0.3-0.1-0.4-0.4-0.4-0.6v-3c-1-0.2-3.6-0.1-7.4,3.7C11.2,20.3,11,20.3,10.8,20.3z M18.1,15
				c1,0,1.5,0.2,1.6,0.3c0.2,0.1,0.4,0.4,0.4,0.6v1.9l4.3-4.3l-4.2-4.2v1.2c0,0.3-0.2,0.6-0.5,0.7c-4.3,1.2-6.3,4.2-7.3,6.3
				C14.8,15.5,16.8,15,18.1,15z"/>
		</g>
	</g>
</g>
</svg>
