<?xml version="1.0" encoding="utf-8"?>
<!-- Generator: Adobe Illustrator 23.0.5, SVG Export Plug-In . SVG Version: 6.00 Build 0)  -->
<svg version="1.1" id="Layer_1" xmlns="http://www.w3.org/2000/svg" xmlns:xlink="http://www.w3.org/1999/xlink" x="0px" y="0px"
	 viewBox="0 0 32 32" style="enable-background:new 0 0 32 32;" xml:space="preserve">
<style type="text/css">
	.st0{fill:#D64E95;}
	.st1{fill:#52BFD0;}
	.st2{fill:#E8D100;}
	.st3{fill:#EA534C;}
	.st4{fill:#5464AC;}
	.st5{fill:#816AAD;}
	.st6{fill:#EF9B6E;}
	.st7{fill:#EF7A70;}
	.st8{fill:#69BC94;}
	.st9{fill:#D692BF;}
	.st10{fill:#56C1DA;}
	.st11{fill:#4AA686;}
	.st12{fill:#67549F;}
	.st13{fill:#993054;}
	.st14{fill:#282352;}
	.st15{fill:#D03D4E;}
	.st16{fill:#FFFFFF;}
</style>
<g>
	<g>
		<g>
			<path class="st2" d="M28,32H4c-2.2,0-4-1.8-4-4V4c0-2.2,1.8-4,4-4h24c2.2,0,4,1.8,4,4v24C32,30.2,30.2,32,28,32z"/>
		</g>
	</g>
</g>
<g>
	<g>
		<g>
			<path class="st16" d="M20.1,16.9h-6.9c-0.4,0-0.7-0.3-0.7-0.7V9.3c0-1,0.8-1.8,1.8-1.8c1,0,1.8,0.8,1.8,1.8v6.2h3.9
				c0.4,0,0.7,0.3,0.7,0.7C20.8,16.6,20.5,16.9,20.1,16.9z M13.9,15.5h0.9V9.3c0-0.2-0.2-0.5-0.5-0.5c-0.3,0-0.5,0.2-0.5,0.5V15.5z"
				/>
		</g>
	</g>
	<g>
		<g>
			<path class="st16" d="M17.8,16.3c-0.4,0-0.7-0.3-0.7-0.7V7.8c0-0.1,0-0.2-0.1-0.3c-0.3-0.3-0.8,0-0.8,0.3v7.8
				c0,0.4-0.3,0.7-0.7,0.7s-0.7-0.3-0.7-0.7V7.8c0-1,0.8-1.8,1.8-1.8c0.5,0,0.9,0.2,1.3,0.5c0.3,0.3,0.5,0.8,0.5,1.3v7.8
				C18.5,16,18.1,16.3,17.8,16.3z"/>
		</g>
	</g>
	<g>
		<g>
			<path class="st16" d="M19.7,16.3c-0.4,0-0.7-0.3-0.7-0.7V8.8c0-0.1-0.1-0.2-0.1-0.2c-0.1-0.1-0.4-0.1-0.5,0.1
				c0,0.4-0.3,0.7-0.7,0.7c-0.4,0-0.7-0.3-0.7-0.6c0-0.1,0-0.3,0.1-0.4c0.2-0.7,0.8-1.2,1.6-1.2c0.4,0,0.9,0.2,1.2,0.5
				c0.3,0.3,0.5,0.7,0.5,1.2v6.8C20.4,16,20.1,16.3,19.7,16.3z"/>
		</g>
	</g>
	<g>
		<g>
			<path class="st16" d="M16.1,26C16.1,26,16.1,26,16.1,26c-2.3,0-4-0.6-5.2-1.9c-1.6-1.7-1.4-4-1.4-4.1l0-5.9
				c0-0.6,0.4-1.6,1.6-1.6c0.6,0,1,0.2,1.3,0.4C13,13.3,13,14,13,14.1l0,3.7c2.3,0.7,2.9,2.7,2.9,3.7c0,0.4-0.3,0.7-0.7,0.7
				c0,0,0,0,0,0c-0.4,0-0.7-0.3-0.7-0.7c0-0.2-0.1-2.1-2.3-2.5c-0.3-0.1-0.6-0.3-0.6-0.7v-4.2c0-0.3-0.3-0.3-0.4-0.3
				c-0.3,0-0.4,0.2-0.4,0.3l0,6c0,0.1-0.1,1.9,1.1,3.2c0.9,0.9,2.3,1.4,4.1,1.4c0,0,0,0,0,0c0.3,0,4.9-0.1,5-4v-8.9
				c0-0.1,0-0.2-0.1-0.3c-0.1-0.1-0.6-0.1-0.7,0.2l0,3.9c0,0.4-0.3,0.7-0.7,0.7c-0.4,0-0.7-0.3-0.7-0.7v-3.8c0-0.1,0-0.2,0-0.3
				c0.1-0.8,0.9-1.4,1.7-1.4c0.5,0,0.9,0.2,1.2,0.5c0.3,0.3,0.5,0.8,0.5,1.2v8.9C22.3,24.9,18.3,26,16.1,26z"/>
		</g>
	</g>
</g>
</svg>
