<?xml version="1.0" encoding="utf-8"?>
<!-- Generator: Adobe Illustrator 23.0.5, SVG Export Plug-In . SVG Version: 6.00 Build 0)  -->
<svg version="1.1" id="Layer_1" xmlns="http://www.w3.org/2000/svg" xmlns:xlink="http://www.w3.org/1999/xlink" x="0px" y="0px"
	 viewBox="0 0 32 32" style="enable-background:new 0 0 32 32;" xml:space="preserve">
<style type="text/css">
	.st0{fill:#D64E95;}
	.st1{fill:#52BFD0;}
	.st2{fill:#E8D100;}
	.st3{fill:#EA534C;}
	.st4{fill:#5464AC;}
	.st5{fill:#816AAD;}
	.st6{fill:#EF9B6E;}
	.st7{fill:#EF7A70;}
	.st8{fill:#69BC94;}
	.st9{fill:#D692BF;}
	.st10{fill:#56C1DA;}
	.st11{fill:#4AA686;}
	.st12{fill:#67549F;}
	.st13{fill:#993054;}
	.st14{fill:#282352;}
	.st15{fill:#D03D4E;}
	.st16{fill:#FFFFFF;}
</style>
<g>
	<g>
		<g>
			<path class="st14" d="M28,32H4c-2.2,0-4-1.8-4-4V4c0-2.2,1.8-4,4-4h24c2.2,0,4,1.8,4,4v24C32,30.2,30.2,32,28,32z"/>
		</g>
	</g>
</g>
<g>
	<g>
		<g>
			<g>
				<path class="st16" d="M21.4,10.4v9.4c0,0.2-0.1,0.4-0.2,0.5c-0.3-0.1-0.6-0.2-1-0.2c0-0.1-0.1-0.2-0.1-0.2v-9.1l-3.3-3.5H9.2
					C9,7.2,8.7,7.4,8.7,7.7v15.2c0,0.2,0.2,0.5,0.5,0.5h8.6c0.1,0.3,0.3,0.6,0.5,0.9c-0.1,0.2-0.3,0.3-0.5,0.4c0,0,0,0-0.1,0H9.2
					c-0.9,0-1.7-0.8-1.7-1.7V7.7C7.5,6.8,8.3,6,9.2,6h7.9c0.2,0,0.3,0.1,0.4,0.2l3.6,3.8C21.3,10.1,21.4,10.3,21.4,10.4z"/>
			</g>
		</g>
		<g>
			<g>
				<path class="st16" d="M20.8,11h-2.7c-0.9,0-1.6-0.7-1.6-1.6V6.6c0-0.3,0.3-0.6,0.6-0.6s0.6,0.3,0.6,0.6v2.8
					c0,0.2,0.2,0.4,0.4,0.4h2.7c0.3,0,0.6,0.3,0.6,0.6C21.4,10.8,21.1,11,20.8,11z"/>
			</g>
		</g>
		<g>
			<g>
				<path class="st16" d="M18.6,13.2H14c-0.3,0-0.6-0.3-0.6-0.6c0-0.3,0.3-0.6,0.6-0.6h4.7c0.3,0,0.6,0.3,0.6,0.6
					C19.3,13,19,13.2,18.6,13.2z"/>
			</g>
		</g>
		<g>
			<g>
				<path class="st16" d="M14.9,22.3h-4.7c-0.3,0-0.6-0.3-0.6-0.6S9.8,21,10.2,21h4.7c0.3,0,0.6,0.3,0.6,0.6S15.2,22.3,14.9,22.3z"
					/>
			</g>
		</g>
		<g>
			<g>
				<path class="st16" d="M18.6,15.5h-8.5c-0.3,0-0.6-0.3-0.6-0.6c0-0.3,0.3-0.6,0.6-0.6h8.5c0.3,0,0.6,0.3,0.6,0.6
					C19.3,15.2,19,15.5,18.6,15.5z"/>
			</g>
		</g>
		<g>
			<g>
				<path class="st16" d="M18.6,17.7h-8.5c-0.3,0-0.6-0.3-0.6-0.6c0-0.3,0.3-0.6,0.6-0.6h8.5c0.3,0,0.6,0.3,0.6,0.6
					C19.3,17.4,19,17.7,18.6,17.7z"/>
			</g>
		</g>
		<g>
			<g>
				<path class="st16" d="M18.6,19.9h-8.5c-0.3,0-0.6-0.3-0.6-0.6c0-0.3,0.3-0.6,0.6-0.6h8.5c0.3,0,0.6,0.3,0.6,0.6
					C19.3,19.6,19,19.9,18.6,19.9z"/>
			</g>
		</g>
		<g>
			<g>
				<path class="st16" d="M11,12.6v-0.5c-0.3,0-0.6-0.1-0.8-0.2l0.1-0.3c0.2,0.1,0.5,0.2,0.7,0.2c0.4,0,0.6-0.2,0.6-0.5
					c0-0.3-0.2-0.5-0.6-0.6c-0.5-0.2-0.9-0.4-0.9-0.9c0-0.4,0.3-0.8,0.8-0.8V8.3h0.3v0.5c0.3,0,0.5,0.1,0.7,0.2l-0.1,0.3
					c-0.1-0.1-0.3-0.2-0.7-0.2c-0.4,0-0.6,0.2-0.6,0.4c0,0.3,0.2,0.4,0.6,0.6c0.5,0.2,0.8,0.5,0.8,1c0,0.4-0.3,0.8-0.8,0.9v0.5H11z"
					/>
			</g>
		</g>
		<g>
			<g>
				<path class="st16" d="M21.4,19.7c-0.4-0.2-0.8-0.3-1.2-0.3h0c-1.7,0-3.1,1.4-3.1,3.1c0,0.3,0,0.5,0.1,0.8
					c0.1,0.5,0.3,0.9,0.6,1.2c0.6,0.7,1.4,1.1,2.3,1.1c1.7,0,3.1-1.4,3.1-3.1C23.2,21.3,22.5,20.2,21.4,19.7z M20.1,25
					c-0.7,0-1.4-0.3-1.8-0.8c-0.2-0.2-0.4-0.5-0.5-0.9c-0.1-0.2-0.1-0.5-0.1-0.8c0-1.4,1.1-2.5,2.5-2.5c0,0,0,0,0.1,0
					c0.3,0,0.7,0.1,1,0.2c0.9,0.4,1.4,1.3,1.4,2.2C22.6,23.9,21.5,25,20.1,25z"/>
			</g>
		</g>
	</g>
	<g>
		<g>
			<path class="st16" d="M24.2,26c-0.1,0-0.1,0-0.2-0.1l-1.8-1.5c-0.1-0.1-0.1-0.3,0-0.4c0.1-0.1,0.3-0.1,0.4,0l1.8,1.5
				c0.1,0.1,0.1,0.3,0,0.4C24.3,26,24.3,26,24.2,26z"/>
		</g>
	</g>
</g>
</svg>
