<?xml version="1.0" encoding="utf-8"?>
<!-- Generator: Adobe Illustrator 23.0.5, SVG Export Plug-In . SVG Version: 6.00 Build 0)  -->
<svg version="1.1" id="Layer_1" xmlns="http://www.w3.org/2000/svg" xmlns:xlink="http://www.w3.org/1999/xlink" x="0px" y="0px"
	 viewBox="0 0 32 32" style="enable-background:new 0 0 32 32;" xml:space="preserve">
<style type="text/css">
	.st0{fill:#D64E95;}
	.st1{fill:#52BFD0;}
	.st2{fill:#E8D100;}
	.st3{fill:#EA534C;}
	.st4{fill:#5464AC;}
	.st5{fill:#816AAD;}
	.st6{fill:#EF9B6E;}
	.st7{fill:#EF7A70;}
	.st8{fill:#69BC94;}
	.st9{fill:#D692BF;}
	.st10{fill:#56C1DA;}
	.st11{fill:#4AA686;}
	.st12{fill:#67549F;}
	.st13{fill:#993054;}
	.st14{fill:#282352;}
	.st15{fill:#D03D4E;}
	.st16{fill:#FFFFFF;}
</style>
<g>
	<g>
		<g>
			<path class="st13" d="M28,32H4c-2.2,0-4-1.8-4-4V4c0-2.2,1.8-4,4-4h24c2.2,0,4,1.8,4,4v24C32,30.2,30.2,32,28,32z"/>
		</g>
	</g>
</g>
<g>
	<g>
		<g>
			<g>
				<g>
					<path class="st16" d="M20.3,26c-0.2,0-0.3-0.1-0.4-0.3l-1.2-2.4l-2.4-1.2C16.1,22,16,21.8,16,21.7s0.1-0.4,0.3-0.4l6-2.2
						c0.2-0.1,0.4,0,0.5,0.1c0.1,0.1,0.2,0.3,0.1,0.5l-2.2,6.1C20.7,25.9,20.5,26,20.3,26C20.3,26,20.3,26,20.3,26z M17.7,21.7
						l1.5,0.8c0.1,0,0.2,0.1,0.2,0.2l0.8,1.6l1.5-4.1L17.7,21.7z"/>
				</g>
			</g>
			<g>
				<g>
					<path class="st16" d="M19,23.4c-0.1,0-0.2,0-0.3-0.1c-0.2-0.2-0.2-0.5,0-0.7l3.5-3.5c0.2-0.2,0.5-0.2,0.7,0
						c0.2,0.2,0.2,0.5,0,0.7l-3.5,3.5C19.3,23.4,19.2,23.4,19,23.4z"/>
				</g>
			</g>
		</g>
		<g>
			<g>
				<path class="st16" d="M18.1,23h-7.6C9.7,23,9,22.3,9,21.5v-14C9,6.7,9.7,6,10.5,6h7.3c0.1,0,0.3,0.1,0.3,0.1l3.4,3.5
					c0.1,0.1,0.1,0.2,0.1,0.3V20c0,0.3-0.2,0.5-0.5,0.5c-0.3,0-0.5-0.2-0.5-0.5v-9.7L17.6,7h-7.1C10.2,7,10,7.2,10,7.5v14
					c0,0.3,0.2,0.5,0.5,0.5h7.6c0.3,0,0.5,0.2,0.5,0.5S18.3,23,18.1,23z"/>
			</g>
		</g>
		<g>
			<g>
				<path class="st16" d="M21.1,10.5h-2.5c-0.8,0-1.4-0.6-1.4-1.4V6.5c0-0.3,0.2-0.5,0.5-0.5s0.5,0.2,0.5,0.5v2.6
					c0,0.2,0.2,0.4,0.4,0.4h2.5c0.3,0,0.5,0.2,0.5,0.5C21.6,10.3,21.4,10.5,21.1,10.5z"/>
			</g>
		</g>
		<g>
			<g>
				<path class="st16" d="M19.2,12.5h-4.3c-0.3,0-0.5-0.2-0.5-0.5c0-0.3,0.2-0.5,0.5-0.5h4.3c0.3,0,0.5,0.2,0.5,0.5
					C19.7,12.3,19.5,12.5,19.2,12.5z"/>
			</g>
		</g>
		<g>
			<g>
				<path class="st16" d="M15.7,20.9h-4.3c-0.3,0-0.5-0.2-0.5-0.5c0-0.3,0.2-0.5,0.5-0.5h4.3c0.3,0,0.5,0.2,0.5,0.5
					C16.2,20.6,16,20.9,15.7,20.9z"/>
			</g>
		</g>
		<g>
			<g>
				<path class="st16" d="M19.2,14.6h-7.8c-0.3,0-0.5-0.2-0.5-0.5c0-0.3,0.2-0.5,0.5-0.5h7.8c0.3,0,0.5,0.2,0.5,0.5
					C19.7,14.4,19.5,14.6,19.2,14.6z"/>
			</g>
		</g>
		<g>
			<g>
				<path class="st16" d="M19.2,16.6h-7.8c-0.3,0-0.5-0.2-0.5-0.5c0-0.3,0.2-0.5,0.5-0.5h7.8c0.3,0,0.5,0.2,0.5,0.5
					C19.7,16.4,19.5,16.6,19.2,16.6z"/>
			</g>
		</g>
		<g>
			<g>
				<path class="st16" d="M19.2,18.7h-7.8c-0.3,0-0.5-0.2-0.5-0.5s0.2-0.5,0.5-0.5h7.8c0.3,0,0.5,0.2,0.5,0.5S19.5,18.7,19.2,18.7z"
					/>
			</g>
		</g>
	</g>
	<g>
		<g>
			<g>
				<g>
					<path class="st16" d="M12.1,12.6v-0.5c-0.3,0-0.6-0.1-0.8-0.2l0.1-0.3c0.2,0.1,0.5,0.2,0.7,0.2c0.4,0,0.6-0.2,0.6-0.5
						c0-0.3-0.2-0.5-0.6-0.6c-0.5-0.2-0.9-0.4-0.9-0.9c0-0.4,0.3-0.8,0.8-0.8V8.3h0.3v0.5c0.3,0,0.5,0.1,0.7,0.2L13,9.4
						c-0.1-0.1-0.3-0.2-0.7-0.2c-0.4,0-0.6,0.2-0.6,0.4c0,0.3,0.2,0.4,0.6,0.6c0.5,0.2,0.8,0.5,0.8,1c0,0.4-0.3,0.8-0.8,0.9v0.5
						H12.1z"/>
				</g>
			</g>
		</g>
	</g>
</g>
</svg>
