<?xml version="1.0" encoding="utf-8"?>
<!-- Generator: Adobe Illustrator 23.0.5, SVG Export Plug-In . SVG Version: 6.00 Build 0)  -->
<svg version="1.1" id="Layer_1" xmlns="http://www.w3.org/2000/svg" xmlns:xlink="http://www.w3.org/1999/xlink" x="0px" y="0px"
	 viewBox="0 0 32 32" style="enable-background:new 0 0 32 32;" xml:space="preserve">
<style type="text/css">
	.st0{fill:#F9882B;}
	.st1{fill:#FFFFFF;}
</style>
<g>
	<g>
		<path class="st0" d="M28,32H4c-2.2,0-4-1.8-4-4V4c0-2.2,1.8-4,4-4h24c2.2,0,4,1.8,4,4v24C32,30.2,30.2,32,28,32z"/>
	</g>
</g>
<g>
	<path class="st1" d="M22.1,26H8.2c-0.7,0-1.3-0.6-1.3-1.3v0c0-0.7,0.6-1.3,1.3-1.3h13.9c0.7,0,1.3,0.6,1.3,1.3v0
		C23.4,25.4,22.8,26,22.1,26z"/>
	<path class="st1" d="M16,20.2H8.2c-0.7,0-1.3-0.6-1.3-1.3v0c0-0.7,0.6-1.3,1.3-1.3H16c0.7,0,1.3,0.6,1.3,1.3v0
		C17.4,19.6,16.8,20.2,16,20.2z"/>
	<path class="st1" d="M19.9,14.4H8.2c-0.7,0-1.3-0.6-1.3-1.3v0c0-0.7,0.6-1.3,1.3-1.3h11.7c0.7,0,1.3,0.6,1.3,1.3v0
		C21.2,13.8,20.6,14.4,19.9,14.4z"/>
	<path class="st1" d="M23.8,8.6H8.2C7.5,8.6,6.9,8,6.9,7.3v0C6.9,6.6,7.5,6,8.2,6h15.6c0.7,0,1.3,0.6,1.3,1.3v0
		C25.1,8,24.5,8.6,23.8,8.6z"/>
</g>
</svg>
