<?xml version="1.0" encoding="utf-8"?>
<!-- Generator: Adobe Illustrator 23.0.5, SVG Export Plug-In . SVG Version: 6.00 Build 0)  -->
<svg version="1.1" id="Layer_1" xmlns="http://www.w3.org/2000/svg" xmlns:xlink="http://www.w3.org/1999/xlink" x="0px" y="0px"
	 viewBox="0 0 32 32" style="enable-background:new 0 0 32 32;" xml:space="preserve">
<style type="text/css">
	.st0{fill:#56C1DA;}
	.st1{fill:#FFFFFF;}
	.st2{fill:#EF7A70;}
	.st3{fill:#D692BF;}
	.st4{fill:#69BC94;}
	.st5{fill:#EF9B6E;}
	.st6{fill:#816AAD;}
	.st7{fill:#5464AC;}
	.st8{fill:#67549F;}
	.st9{fill:#E8D100;}
	.st10{fill:#EA534C;}
	.st11{fill:#52BFD0;}
	.st12{fill:#4AA686;}
	.st13{fill:#D03D4E;}
	.st14{fill:#282352;}
	.st15{fill:#993054;}
	.st16{fill:#D64E95;}
	.st17{fill:#FFFFFF;stroke:#D64F95;stroke-width:1.3;stroke-linecap:round;stroke-linejoin:round;stroke-miterlimit:10;}
	.st18{fill:none;stroke:#FFFFFF;stroke-width:1.5;stroke-linecap:round;stroke-linejoin:round;stroke-miterlimit:10;}
	.st19{fill:#E8385A;}
</style>
<g>
	<g>
		<g>
			<path class="st16" d="M28,32H4c-2.2,0-4-1.8-4-4V4c0-2.2,1.8-4,4-4h24c2.2,0,4,1.8,4,4v24C32,30.2,30.2,32,28,32z"/>
		</g>
	</g>
</g>
<g>
	<g>
		<g>
			<polygon class="st17" points="21.2,20.7 21.2,18.3 18.3,18.3 18.3,21.2 20.7,21.2 15.9,26 11.1,21.2 13.7,21.2 13.7,18.3 
				10.8,18.3 10.8,20.7 6,15.9 10.8,11.1 10.8,13.7 13.7,13.7 13.7,10.8 11.1,10.8 15.9,6 20.7,10.8 18.3,10.8 18.3,13.7 21.2,13.7 
				21.2,11.1 26,15.9 			"/>
		</g>
	</g>
</g>
</svg>
