<?xml version="1.0" encoding="utf-8"?>
<!-- Generator: Adobe Illustrator 23.0.5, SVG Export Plug-In . SVG Version: 6.00 Build 0)  -->
<svg version="1.1" id="Layer_1" xmlns="http://www.w3.org/2000/svg" xmlns:xlink="http://www.w3.org/1999/xlink" x="0px" y="0px"
	 viewBox="0 0 32 32" style="enable-background:new 0 0 32 32;" xml:space="preserve">
<style type="text/css">
	.st0{fill:#D64E95;}
	.st1{fill:#52BFD0;}
	.st2{fill:#E8D100;}
	.st3{fill:#EA534C;}
	.st4{fill:#5464AC;}
	.st5{fill:#816AAD;}
	.st6{fill:#EF9B6E;}
	.st7{fill:#EF7A70;}
	.st8{fill:#69BC94;}
	.st9{fill:#D692BF;}
	.st10{fill:#56C1DA;}
	.st11{fill:#4AA686;}
	.st12{fill:#67549F;}
	.st13{fill:#993054;}
	.st14{fill:#282352;}
	.st15{fill:#D03D4E;}
	.st16{fill:#FFFFFF;}
</style>
<g>
	<g>
		<g>
			<path class="st11" d="M28,32H4c-2.2,0-4-1.8-4-4V4c0-2.2,1.8-4,4-4h24c2.2,0,4,1.8,4,4v24C32,30.2,30.2,32,28,32z"/>
		</g>
	</g>
</g>
<g>
	<g>
		<g>
			<path class="st16" d="M14.2,20.6v-1.3c-0.7,0-1.5-0.2-2-0.5l0.3-0.8c0.5,0.3,1.1,0.5,1.9,0.5c0.9,0,1.5-0.5,1.5-1.2
				c0-0.7-0.5-1.1-1.5-1.5c-1.3-0.5-2.1-1.1-2.1-2.2c0-1,0.8-1.8,1.9-2v-1.3h0.8v1.2c0.8,0,1.3,0.2,1.7,0.4l-0.3,0.8
				c-0.3-0.1-0.8-0.4-1.6-0.4c-1,0-1.4,0.6-1.4,1.1c0,0.6,0.5,1,1.6,1.4c1.3,0.5,2,1.2,2,2.3c0,1-0.7,1.9-2,2.1v1.3H14.2z"/>
		</g>
	</g>
	<g>
		<g>
			<path class="st16" d="M14.9,24.3c-4.9,0-8.9-4-8.9-8.9c0-4.9,4-8.9,8.9-8.9s8.9,4,8.9,8.9c0,0.6-0.1,1.3-0.2,1.9
				c-0.1,0.3-0.4,0.5-0.7,0.4c-0.3-0.1-0.5-0.4-0.4-0.7c0.1-0.5,0.2-1.1,0.2-1.7c0-4.3-3.5-7.8-7.8-7.8s-7.8,3.5-7.8,7.8
				c0,4.3,3.5,7.8,7.8,7.8c1,0,2-0.2,3-0.6c0.3-0.1,0.6,0,0.7,0.3c0.1,0.3,0,0.6-0.3,0.7C17.2,24.1,16.1,24.3,14.9,24.3z"/>
		</g>
	</g>
	<g>
		<g>
			<g>
				<path class="st16" d="M22.2,25.5c-2.1,0-3.8-1.7-3.8-3.8s1.7-3.8,3.8-3.8s3.8,1.7,3.8,3.8S24.3,25.5,22.2,25.5z M22.2,19
					c-1.5,0-2.7,1.2-2.7,2.7c0,1.5,1.2,2.7,2.7,2.7s2.7-1.2,2.7-2.7C24.9,20.2,23.7,19,22.2,19z"/>
			</g>
		</g>
		<g>
			<g>
				<path class="st16" d="M21.6,23.3L21.6,23.3c-0.2,0-0.3-0.1-0.4-0.2l-0.7-0.8c-0.2-0.2-0.2-0.6,0-0.8c0.2-0.2,0.6-0.2,0.8,0
					l0.3,0.3l1.6-1.7c0.2-0.2,0.6-0.2,0.8,0c0.2,0.2,0.2,0.6,0,0.8l-2,2.2C21.9,23.3,21.7,23.3,21.6,23.3z"/>
			</g>
		</g>
	</g>
</g>
</svg>
