<?xml version="1.0" encoding="utf-8"?>
<!-- Generator: Adobe Illustrator 23.0.5, SVG Export Plug-In . SVG Version: 6.00 Build 0)  -->
<svg version="1.1" id="Layer_1" xmlns="http://www.w3.org/2000/svg" xmlns:xlink="http://www.w3.org/1999/xlink" x="0px" y="0px"
	 viewBox="0 0 32 32" style="enable-background:new 0 0 32 32;" xml:space="preserve">
<style type="text/css">
	.st0{fill:#D64E95;}
	.st1{fill:#52BFD0;}
	.st2{fill:#E8D100;}
	.st3{fill:#EA534C;}
	.st4{fill:#5464AC;}
	.st5{fill:#816AAD;}
	.st6{fill:#EF9B6E;}
	.st7{fill:#EF7A70;}
	.st8{fill:#69BC94;}
	.st9{fill:#D692BF;}
	.st10{fill:#56C1DA;}
	.st11{fill:#4AA686;}
	.st12{fill:#67549F;}
	.st13{fill:#993054;}
	.st14{fill:#282352;}
	.st15{fill:#D03D4E;}
	.st16{fill:#FFFFFF;}
</style>
<g>
	<g>
		<g>
			<path class="st4" d="M28,32H4c-2.2,0-4-1.8-4-4V4c0-2.2,1.8-4,4-4h24c2.2,0,4,1.8,4,4v24C32,30.2,30.2,32,28,32z"/>
		</g>
	</g>
</g>
<g>
	<g>
		<g>
			<path class="st16" d="M20.4,26h-5c-0.6,0-1.2-0.3-1.5-0.8L11,20.5c-0.1-0.1-1.2-1.6-1-2.8c0.1-0.5,0.3-0.9,0.7-1.1
				c0.4-0.2,0.8-0.3,1.2-0.2c1.3,0.4,2.3,2.5,2.5,2.9c0.2,0.3,0,0.7-0.3,0.9c-0.3,0.2-0.7,0-0.9-0.3c-0.4-1-1.2-2.1-1.6-2.2
				c-0.2,0.1-0.2,0.1-0.2,0.2c-0.1,0.5,0.4,1.4,0.7,1.8l2.9,4.8c0.1,0.1,0.2,0.2,0.4,0.2h4.9c0.2-0.1,0.8-0.7,0.9-2.2
				c0-2.3,0-6.1,0-6.1l1.3,0c0,0,0,3.8,0,6.1c0,2.8-1.7,3.5-1.8,3.5C20.6,26,20.5,26,20.4,26z"/>
		</g>
	</g>
	<g>
		<g>
			<path class="st16" d="M15.9,20.5c-0.4,0-0.7-0.3-0.7-0.7v-8.5c0-0.1-0.1-0.2-0.1-0.3c-0.2-0.2-0.6,0-0.6,0.3v8.2
				c0,0.4-0.3,0.7-0.7,0.7s-0.7-0.3-0.7-0.7v-8.2c0-0.9,0.8-1.7,1.7-1.7c0.4,0,0.9,0.2,1.2,0.5c0.3,0.3,0.5,0.8,0.5,1.2v8.5
				C16.6,20.2,16.3,20.5,15.9,20.5z"/>
		</g>
	</g>
	<g>
		<g>
			<path class="st16" d="M17.7,20.5c-0.4,0-0.7-0.3-0.7-0.7V15c0-0.1,0-0.1-0.1-0.2c-0.1-0.1-0.4,0-0.4,0.1l0,4.9
				c0,0.4-0.3,0.7-0.7,0.7c-0.4,0-0.7-0.3-0.7-0.7V15c0-0.1,0-0.2,0-0.4c0.2-0.7,0.8-1.2,1.5-1.2c0.4,0,0.8,0.2,1.1,0.5
				c0.3,0.3,0.5,0.7,0.5,1.1v4.8C18.4,20.2,18.1,20.5,17.7,20.5z"/>
		</g>
	</g>
	<g>
		<g>
			<path class="st16" d="M19.6,20.5c-0.4,0-0.7-0.3-0.7-0.7v-4.2c0-0.1-0.1-0.2-0.1-0.2c-0.1-0.1-0.4,0-0.5,0.1l0,4.3
				c0,0.4-0.3,0.7-0.7,0.7c-0.4,0-0.7-0.3-0.7-0.7v-4.2c0-0.1,0-0.3,0-0.4c0.2-0.7,0.8-1.2,1.6-1.2c0.4,0,0.8,0.2,1.1,0.5
				c0.3,0.3,0.5,0.7,0.5,1.1v4.2C20.3,20.2,20,20.5,19.6,20.5z"/>
		</g>
	</g>
	<g>
		<g>
			<path class="st16" d="M19.6,20.5c-0.4,0-0.7-0.3-0.7-0.7v-3.2c0-1,0.8-1.7,1.7-1.7c0.5,0,0.9,0.2,1.2,0.5c0.3,0.3,0.5,0.6,0.5,1
				l0,0.2v1.9c0,0.4-0.3,0.7-0.7,0.7c-0.4,0-0.7-0.3-0.7-0.7v-1.9c0-0.1-0.1-0.2-0.1-0.3c-0.2-0.2-0.7,0-0.7,0.3v3.2
				C20.3,20.2,20,20.5,19.6,20.5z"/>
		</g>
	</g>
	<g>
		<g>
			<path class="st16" d="M16.8,12v-0.9c0-0.5-0.2-1-0.6-1.4c-0.4-0.4-0.9-0.6-1.4-0.6c-1.1,0-1.9,0.9-1.9,1.9v1
				c-0.6-0.5-0.9-1.2-0.9-2.1c0-1.5,1.2-2.8,2.8-2.8s2.8,1.2,2.8,2.8C17.6,10.8,17.3,11.5,16.8,12z"/>
		</g>
	</g>
	<g>
		<g>
			<path class="st16" d="M11.4,13.4c-0.2,0-0.3-0.1-0.5-0.2c-0.9-0.8-1.4-2-1.4-3.2c0-1.5,0.7-2.9,2-3.7c0.2-0.1,0.3-0.2,0.5-0.3
				c0.3-0.2,0.7,0,0.9,0.3c0.2,0.3,0,0.7-0.3,0.9c-0.1,0.1-0.2,0.1-0.3,0.2C11.4,8,10.9,9,10.9,10c0,0.9,0.3,1.7,1,2.3
				c0.3,0.3,0.3,0.7,0,0.9C11.8,13.4,11.6,13.4,11.4,13.4z"/>
		</g>
	</g>
	<g>
		<g>
			<path class="st16" d="M18.2,13.5c-0.2,0-0.4-0.1-0.5-0.2c-0.3-0.3-0.2-0.7,0-0.9c0.6-0.6,1-1.4,1-2.3c0-1-0.5-2-1.4-2.6
				c-0.1-0.1-0.2-0.1-0.3-0.2c-0.3-0.2-0.5-0.6-0.3-0.9c0.2-0.3,0.6-0.5,0.9-0.3c0.2,0.1,0.3,0.2,0.5,0.3c1.2,0.8,2,2.2,2,3.7
				c0,1.2-0.5,2.4-1.4,3.2C18.6,13.4,18.4,13.5,18.2,13.5z"/>
		</g>
	</g>
</g>
</svg>
