<?xml version="1.0" encoding="utf-8"?>
<!-- Generator: Adobe Illustrator 23.0.5, SVG Export Plug-In . SVG Version: 6.00 Build 0)  -->
<svg version="1.1" id="Layer_1" xmlns="http://www.w3.org/2000/svg" xmlns:xlink="http://www.w3.org/1999/xlink" x="0px" y="0px"
	 viewBox="0 0 32 32" style="enable-background:new 0 0 32 32;" xml:space="preserve">
<style type="text/css">
	.st0{fill:#D64E95;}
	.st1{fill:#52BFD0;}
	.st2{fill:#E8D100;}
	.st3{fill:#EA534C;}
	.st4{fill:#5464AC;}
	.st5{fill:#816AAD;}
	.st6{fill:#EF9B6E;}
	.st7{fill:#EF7A70;}
	.st8{fill:#69BC94;}
	.st9{fill:#D692BF;}
	.st10{fill:#56C1DA;}
	.st11{fill:#4AA686;}
	.st12{fill:#67549F;}
	.st13{fill:#993054;}
	.st14{fill:#282352;}
	.st15{fill:#D03D4E;}
	.st16{fill:#FFFFFF;}
</style>
<g>
	<g>
		<g>
			<path class="st6" d="M28,32H4c-2.2,0-4-1.8-4-4V4c0-2.2,1.8-4,4-4h24c2.2,0,4,1.8,4,4v24C32,30.2,30.2,32,28,32z"/>
		</g>
	</g>
</g>
<g>
	<g>
		<g>
			<path class="st16" d="M22.4,15.2c-0.1,0-0.3-0.1-0.4-0.2l-3-3c-0.2-0.2-0.2-0.4-0.1-0.6c0.1-0.2,0.3-0.4,0.5-0.4l0,0l1.3,0V7.7
				c0-0.3,0.3-0.6,0.6-0.6h2c0.3,0,0.6,0.3,0.6,0.6V11h1.5c0.2,0,0.4,0.1,0.5,0.4c0.1,0.2,0,0.5-0.1,0.6l-3,3
				C22.7,15.1,22.5,15.2,22.4,15.2z M20.8,12.1l1.6,1.6l1.6-1.6h-0.7c-0.3,0-0.6-0.3-0.6-0.6V8.3h-0.9v3.2c0,0.2-0.1,0.3-0.2,0.4
				c-0.1,0.1-0.3,0.2-0.4,0.2l0,0H20.8z"/>
		</g>
	</g>
	<g>
		<g>
			<path class="st16" d="M21.9,24.8H7c-0.6,0-1-0.5-1-1V13.1C6,12.5,6.5,12,7.1,12h4.7c0.1,0,0.2,0,0.3,0.1l3.3,1.7h3.8
				c0.3,0,0.6,0.3,0.6,0.6s-0.3,0.6-0.6,0.6h-3.9c-0.1,0-0.2,0-0.3-0.1l-3.3-1.7H7.1l0,8.3l2.1-5.2C9.3,16.1,9.5,16,9.7,16h14.9
				c0.3,0,0.6,0.2,0.8,0.4c0.2,0.3,0.2,0.6,0.1,0.9l-2.8,7C22.6,24.6,22.2,24.8,21.9,24.8z M7.5,23.7h14.2l2.6-6.5H10.1L7.5,23.7z"
				/>
		</g>
	</g>
</g>
</svg>
