<?xml version="1.0" encoding="utf-8"?>
<!-- Generator: Adobe Illustrator 23.0.5, SVG Export Plug-In . SVG Version: 6.00 Build 0)  -->
<svg version="1.1" id="Layer_1" xmlns="http://www.w3.org/2000/svg" xmlns:xlink="http://www.w3.org/1999/xlink" x="0px" y="0px"
	 viewBox="0 0 32 32" style="enable-background:new 0 0 32 32;" xml:space="preserve">
<style type="text/css">
	.st0{fill:#D64E95;}
	.st1{fill:#52BFD0;}
	.st2{fill:#E8D100;}
	.st3{fill:#EA534C;}
	.st4{fill:#E8385A;}
	.st5{fill:#816AAD;}
	.st6{fill:#EF9B6E;}
	.st7{fill:#EF7A70;}
	.st8{fill:#69BC94;}
	.st9{fill:#D692BF;}
	.st10{fill:#56C1DA;}
	.st11{fill:#4AA686;}
	.st12{fill:#67549F;}
	.st13{fill:#993054;}
	.st14{fill:#282352;}
	.st15{fill:#FFFFFF;}
	.st16{fill:#5464AC;}
	.st17{fill:#D03D4E;}
	.st18{fill:none;stroke:#FFFFFF;stroke-width:1.5;stroke-linecap:round;stroke-linejoin:round;stroke-miterlimit:10;}
</style>
<g>
	<g>
		<g>
			<path class="st4" d="M28,32H4c-2.2,0-4-1.8-4-4V4c0-2.2,1.8-4,4-4h24c2.2,0,4,1.8,4,4v24C32,30.2,30.2,32,28,32z"/>
		</g>
	</g>
</g>
<g>
	<g>
		<g>
			<path class="st15" d="M20.5,24.9H15c-0.7,0-1.3-0.4-1.6-0.9l-3.1-5.1c-0.1-0.1-1.3-1.7-1-3c0.1-0.5,0.4-0.9,0.8-1.2
				c0.4-0.3,0.8-0.3,1.3-0.2c1.4,0.4,2.5,2.7,2.7,3.2c0.2,0.4,0,0.8-0.4,1c-0.4,0.2-0.8,0-1-0.4c-0.5-1-1.3-2.2-1.8-2.4
				c-0.2,0.1-0.2,0.1-0.2,0.3c-0.1,0.5,0.4,1.5,0.8,2l3.1,5.1c0.1,0.1,0.2,0.2,0.4,0.2h5.3c0.2-0.2,0.9-0.8,0.9-2.4
				c0-2.5,0-6.6,0-6.6l1.4,0c0,0,0,4.1,0,6.6c0,3-1.9,3.7-1.9,3.8C20.7,24.8,20.6,24.9,20.5,24.9z"/>
		</g>
	</g>
	<g>
		<g>
			<path class="st15" d="M15.7,18.9c-0.4,0-0.7-0.3-0.7-0.7V9c0-0.1-0.1-0.2-0.1-0.3c-0.2-0.2-0.7,0-0.7,0.3v8.9
				c0,0.4-0.3,0.7-0.7,0.7c-0.4,0-0.7-0.3-0.7-0.7V9c0-1,0.8-1.9,1.9-1.9c0.5,0,1,0.2,1.3,0.5C16.2,8,16.4,8.5,16.4,9v9.2
				C16.4,18.6,16.1,18.9,15.7,18.9z"/>
		</g>
	</g>
	<g>
		<g>
			<path class="st15" d="M17.6,18.9c-0.4,0-0.7-0.3-0.7-0.7V13c0-0.1-0.1-0.2-0.1-0.2c-0.1-0.1-0.4,0-0.5,0.1l0,5.3
				c0,0.4-0.3,0.7-0.7,0.7c-0.4,0-0.7-0.3-0.7-0.7V13c0-0.1,0-0.3,0-0.4c0.2-0.8,0.9-1.3,1.7-1.3c0.5,0,0.9,0.2,1.2,0.5
				c0.3,0.3,0.5,0.8,0.5,1.2v5.2C18.3,18.6,18,18.9,17.6,18.9z"/>
		</g>
	</g>
	<g>
		<g>
			<path class="st15" d="M19.7,18.9c-0.4,0-0.7-0.3-0.7-0.7v-4.6c0-0.1-0.1-0.2-0.1-0.2c-0.1-0.1-0.5,0-0.5,0.1l0,4.6
				c0,0.4-0.3,0.7-0.7,0.7c-0.4,0-0.7-0.3-0.7-0.7v-4.6c0-0.1,0-0.3,0.1-0.4c0.2-0.8,0.9-1.3,1.7-1.3c0.5,0,0.9,0.2,1.2,0.5
				c0.3,0.3,0.5,0.8,0.5,1.2v4.6C20.4,18.6,20.1,18.9,19.7,18.9z"/>
		</g>
	</g>
	<g>
		<g>
			<path class="st15" d="M19.7,18.9c-0.4,0-0.7-0.3-0.7-0.7v-3.5c0-1,0.8-1.9,1.9-1.9c0.5,0,1,0.2,1.3,0.6c0.3,0.3,0.5,0.7,0.5,1.1
				l0,0.2v2c0,0.4-0.3,0.7-0.7,0.7c-0.4,0-0.7-0.3-0.7-0.7v-2c0-0.1-0.1-0.2-0.1-0.3c-0.3-0.3-0.8,0-0.8,0.3v3.5
				C20.4,18.6,20.1,18.9,19.7,18.9z"/>
		</g>
	</g>
</g>
<line class="st18" x1="26" y1="9.8" x2="6" y2="22.2"/>
</svg>
