<?xml version="1.0" encoding="utf-8"?>
<!-- Generator: Adobe Illustrator 23.0.5, SVG Export Plug-In . SVG Version: 6.00 Build 0)  -->
<svg version="1.1" id="Layer_1" xmlns="http://www.w3.org/2000/svg" xmlns:xlink="http://www.w3.org/1999/xlink" x="0px" y="0px"
	 viewBox="0 0 32 32" style="enable-background:new 0 0 32 32;" xml:space="preserve">
<style type="text/css">
	.st0{fill:#D64E95;}
	.st1{fill:#52BFD0;}
	.st2{fill:#E8D100;}
	.st3{fill:#EA534C;}
	.st4{fill:#5464AC;}
	.st5{fill:#816AAD;}
	.st6{fill:#EF9B6E;}
	.st7{fill:#EF7A70;}
	.st8{fill:#69BC94;}
	.st9{fill:#D692BF;}
	.st10{fill:#56C1DA;}
	.st11{fill:#4AA686;}
	.st12{fill:#67549F;}
	.st13{fill:#993054;}
	.st14{fill:#282352;}
	.st15{fill:#D03D4E;}
	.st16{fill:#FFFFFF;}
</style>
<g>
	<g>
		<g>
			<path class="st9" d="M28,32H4c-2.2,0-4-1.8-4-4V4c0-2.2,1.8-4,4-4h24c2.2,0,4,1.8,4,4v24C32,30.2,30.2,32,28,32z"/>
		</g>
	</g>
</g>
<g>
	<g>
		<g>
			<path class="st16" d="M16,26c-5.5,0-10-4.5-10-10c0-0.2,0-0.3,0-0.5c0-0.4,0.3-0.7,0.7-0.7c0.4,0,0.7,0.3,0.7,0.7
				c0,0.1,0,0.3,0,0.4c0,4.7,3.9,8.6,8.6,8.6c4.7,0,8.6-3.9,8.6-8.6c0-4.7-3.9-8.6-8.6-8.6c-2.9,0-5.6,1.5-7.2,3.9
				c-0.2,0.3-0.6,0.4-1,0.2c-0.3-0.2-0.4-0.6-0.2-1C9.5,7.7,12.6,6,16,6c5.5,0,10,4.5,10,10C26,21.5,21.5,26,16,26z"/>
		</g>
	</g>
	<g>
		<g>
			<path class="st16" d="M12.5,11.6H8.2c-0.4,0-0.7-0.3-0.7-0.7V6.7C7.5,6.3,7.8,6,8.2,6s0.7,0.3,0.7,0.7v3.5h3.6
				c0.4,0,0.7,0.3,0.7,0.7S12.9,11.6,12.5,11.6z"/>
		</g>
	</g>
	<g>
		<g>
			<path class="st16" d="M19.3,20c-0.2,0-0.4-0.1-0.5-0.2l-3.3-3.3c-0.1-0.1-0.2-0.3-0.2-0.5v-5.1c0-0.4,0.3-0.7,0.7-0.7
				c0.4,0,0.7,0.3,0.7,0.7v4.8l3.1,3.1c0.3,0.3,0.3,0.7,0,1C19.6,19.9,19.4,20,19.3,20z"/>
		</g>
	</g>
</g>
</svg>
