<?xml version="1.0" encoding="utf-8"?>
<!-- Generator: Adobe Illustrator 23.0.5, SVG Export Plug-In . SVG Version: 6.00 Build 0)  -->
<svg version="1.1" id="Layer_1" xmlns="http://www.w3.org/2000/svg" xmlns:xlink="http://www.w3.org/1999/xlink" x="0px" y="0px"
	 viewBox="0 0 32 32" style="enable-background:new 0 0 32 32;" xml:space="preserve">
<style type="text/css">
	.st0{fill:#D64E95;}
	.st1{fill:#52BFD0;}
	.st2{fill:#E8D100;}
	.st3{fill:#EA534C;}
	.st4{fill:#5464AC;}
	.st5{fill:#816AAD;}
	.st6{fill:#EF9B6E;}
	.st7{fill:#EF7A70;}
	.st8{fill:#69BC94;}
	.st9{fill:#D692BF;}
	.st10{fill:#56C1DA;}
	.st11{fill:#4AA686;}
	.st12{fill:#67549F;}
	.st13{fill:#993054;}
	.st14{fill:#282352;}
	.st15{fill:#D03D4E;}
	.st16{fill:#FFFFFF;}
</style>
<g>
	<g>
		<g>
			<path class="st8" d="M28,32H4c-2.2,0-4-1.8-4-4V4c0-2.2,1.8-4,4-4h24c2.2,0,4,1.8,4,4v24C32,30.2,30.2,32,28,32z"/>
		</g>
	</g>
</g>
<g>
	<g>
		<g>
			<path class="st16" d="M16,20.4c-5.4,0-9.7-4-9.9-4.2C6,16.2,6,16.1,6,16s0-0.2,0.1-0.3c0.2-0.2,4.5-4.2,9.9-4.2s9.7,4,9.9,4.2
				C26,15.8,26,15.9,26,16s0,0.2-0.1,0.3C25.7,16.4,21.4,20.4,16,20.4z M7,16c1.1,0.9,4.7,3.7,9,3.7c4.3,0,8-2.8,9-3.7
				c-1.1-0.9-4.7-3.7-9-3.7C11.7,12.3,8,15.1,7,16z"/>
		</g>
	</g>
	<g>
		<g>
			<path class="st16" d="M16.1,20.4c-2.5,0-4.6-2-4.6-4.4c0-2.4,2-4.4,4.6-4.4s4.6,2,4.6,4.4C20.6,18.4,18.6,20.4,16.1,20.4z
				 M16.1,12.3c-2.1,0-3.8,1.6-3.8,3.6s1.7,3.6,3.8,3.6c2.1,0,3.8-1.6,3.8-3.6S18.2,12.3,16.1,12.3z"/>
		</g>
	</g>
	<g>
		<g>
			<path class="st16" d="M16,18.7c-1.5,0-2.7-1.2-2.7-2.7c0-0.1,0-0.3,0-0.4c0-0.2,0.1-0.3,0.3-0.3c0.2,0,0.3,0,0.4,0.1
				c0.2,0.2,0.5,0.4,0.8,0.4c0.5,0,1-0.4,1-1c0-0.3-0.2-0.7-0.5-0.8c-0.1-0.1-0.2-0.2-0.2-0.4c0-0.2,0.1-0.3,0.3-0.3
				c0.2-0.1,0.4-0.1,0.7-0.1c1.5,0,2.7,1.2,2.7,2.7C18.7,17.4,17.5,18.7,16,18.7z M14.1,16.4c0.2,0.9,1,1.5,1.9,1.5c1.1,0,2-0.9,2-2
				c0-1-0.7-1.8-1.7-2c0.1,0.3,0.2,0.5,0.2,0.8c0,1-0.8,1.7-1.7,1.7C14.5,16.5,14.3,16.5,14.1,16.4z"/>
		</g>
	</g>
</g>
</svg>
